<svg width="24" height="24" viewBox="0 0 24 24" fill="none" xmlns="http://www.w3.org/2000/svg">
<path d="M18.6975 7.22314L21.9201 9.67131C21.9204 9.67156 21.9207 9.67181 21.9211 9.67206C22.0333 9.75869 22.0874 9.85577 22.1038 9.98702C22.1205 10.1203 22.0921 10.2457 21.9931 10.3844C21.9015 10.5126 21.8059 10.5641 21.6879 10.5789C21.5566 10.5953 21.4327 10.568 21.2964 10.4722L12.3035 3.60266L11.9999 3.37081L11.6964 3.60266L2.70353 10.4722C2.56717 10.568 2.44334 10.5953 2.31197 10.5789C2.19401 10.5641 2.0984 10.5126 2.00682 10.3844C1.91109 10.2504 1.88661 10.1313 1.90686 10.0028C1.92871 9.86408 1.98912 9.76078 2.10475 9.67136C2.10496 9.67119 2.10518 9.67102 2.10539 9.67086L11.0738 2.80094C11.214 2.69965 11.3608 2.62559 11.5151 2.57628C11.6753 2.52511 11.8363 2.5 11.9999 2.5C12.1636 2.5 12.3251 2.52511 12.4862 2.57642C12.6411 2.62575 12.7871 2.69968 12.9255 2.80041L15.696 4.92198L16.4999 5.53764V4.525V3.975C16.4999 3.68962 16.5942 3.46342 16.7911 3.26696C16.9887 3.06984 17.2156 2.97546 17.5007 2.975C17.7846 2.97454 18.0112 3.06839 18.2094 3.26655C18.4075 3.46469 18.5009 3.6907 18.4999 3.97339V3.975V6.825V7.07307L18.6975 7.22314Z" fill="#000C79" stroke="#000C79"/>
<path d="M18.1667 19.6084H19.8333C20.3333 19.6084 20.6667 19.275 20.6667 18.775V16.275C20.6667 15.525 20.0833 14.8584 19.4167 14.6917C17.9167 14.275 15.6667 13.775 15.6667 13.775C15.6667 13.775 14.5833 12.6084 13.8333 11.8584C13.4167 11.525 12.9167 11.275 12.3333 11.275H6.5C6 11.275 5.58333 11.6084 5.33333 12.025L4.16667 14.4417C4.05632 14.7635 4 15.1014 4 15.4417V18.775C4 19.275 4.33333 19.6084 4.83333 19.6084H6.5" stroke="#000C79" stroke-width="1.3" stroke-linecap="round" stroke-linejoin="round"/>
<path d="M8.16667 21.2751C9.08714 21.2751 9.83333 20.5289 9.83333 19.6084C9.83333 18.688 9.08714 17.9418 8.16667 17.9418C7.24619 17.9418 6.5 18.688 6.5 19.6084C6.5 20.5289 7.24619 21.2751 8.16667 21.2751Z" stroke="#000C79" stroke-width="1.3" stroke-linecap="round" stroke-linejoin="round"/>
<path d="M9.83325 19.6084H14.8333" stroke="#000C79" stroke-width="1.3" stroke-linecap="round" stroke-linejoin="round"/>
<path d="M16.5 21.2751C17.4205 21.2751 18.1667 20.5289 18.1667 19.6084C18.1667 18.688 17.4205 17.9418 16.5 17.9418C15.5796 17.9418 14.8334 18.688 14.8334 19.6084C14.8334 20.5289 15.5796 21.2751 16.5 21.2751Z" stroke="#000C79" stroke-width="1.3" stroke-linecap="round" stroke-linejoin="round"/>
</svg>
