<svg width="24" height="24" viewBox="0 0 24 24" fill="none" xmlns="http://www.w3.org/2000/svg">
<path d="M16.9844 11.6513C16.3552 11.1238 15.5552 10.8438 14.7344 10.8638H9.45815C9.21758 10.8698 8.97826 10.8273 8.75452 10.7387C8.53077 10.6501 8.3272 10.5173 8.15599 10.3482C7.98479 10.1791 7.84946 9.97719 7.75812 9.75456C7.66678 9.53192 7.6213 9.29315 7.6244 9.05252C7.61853 8.95886 7.61853 8.86493 7.6244 8.77127C7.69534 8.3413 7.92079 7.95202 8.25844 7.67652C8.59609 7.40101 9.02269 7.25825 9.45815 7.27502H14.6556C15.0796 7.27465 15.4899 7.42488 15.8134 7.69892C16.1369 7.97297 16.3438 8.04254 16.4219 8.77127C16.5 9.5 18.18 9.63872 18.1094 8.77127C18.0388 7.90382 17.6443 7.09472 17.0043 6.50484C16.3644 5.91495 15.526 5.58747 14.6556 5.58752L12.75 5.5875V3L11.625 3.00002V5.58752H9.45815C8.58783 5.58747 7.74936 5.91495 7.10945 6.50484C6.46954 7.09472 6.07504 7.90382 6.0044 8.77127C5.99853 8.86493 5.99853 8.95886 6.0044 9.05252C6.0044 9.50607 6.09373 9.95519 6.2673 10.3742C6.44087 10.7932 6.69527 11.174 7.01598 11.4947C7.66368 12.1424 8.54216 12.5063 9.45815 12.5063H14.7906C15.0293 12.5003 15.2668 12.5421 15.489 12.6293C15.7112 12.7165 15.9138 12.8473 16.0847 13.014C16.2556 13.1807 16.3914 13.3799 16.4841 13.5999C16.5768 13.8199 16.6245 14.0563 16.6244 14.295C16.6353 14.4223 16.6353 14.5503 16.6244 14.6775C16.5351 15.0734 16.3138 15.4271 15.9969 15.6806C15.6801 15.934 15.2864 16.0723 14.8806 16.0725H9.59315C9.18736 16.0723 8.79372 15.934 8.47685 15.6806C8.15998 15.4271 8.15599 15.3797 7.8494 14.6775C7.5428 13.9753 6.05397 13.8322 6.15065 14.6775C6.24733 15.5228 6.65161 16.303 7.28647 16.8693C7.92132 17.4357 8.74236 17.7488 9.59315 17.7488H11.625V18.75V20.3025H12.75V17.7488H14.7906C15.6414 17.7488 16.4625 17.4357 17.0973 16.8693C17.7322 16.303 18.1365 15.5228 18.2331 14.6775V14.295C18.2318 13.7897 18.1192 13.2909 17.9034 12.834C17.6876 12.3771 17.3738 11.9733 16.9844 11.6513Z" fill="#000C79"/>
<path fill-rule="evenodd" clip-rule="evenodd" d="M11.625 21L11.625 3L12.75 3L12.75 21L11.625 21Z" fill="#000C79"/>
</svg>
