<svg width="24" height="24" viewBox="0 0 24 24" fill="none" xmlns="http://www.w3.org/2000/svg">
<path fill-rule="evenodd" clip-rule="evenodd" d="M5.385 2.75002C4.482 2.75002 3.75 3.48202 3.75 4.38502V11.25H22C22.1989 11.25 22.3897 11.329 22.5303 11.4697C22.671 11.6103 22.75 11.8011 22.75 12C22.75 12.1989 22.671 12.3897 22.5303 12.5303C22.3897 12.671 22.1989 12.75 22 12.75H21.732C21.7387 12.7947 21.7433 12.84 21.746 12.886C21.7493 12.9447 21.7507 13.0047 21.75 13.066V13.105C21.75 13.48 21.75 13.7 21.734 13.945C21.592 16.181 20.384 18.247 18.633 19.597L18.671 19.665L19.671 21.665C19.7159 21.7532 19.7429 21.8495 19.7504 21.9482C19.758 22.0468 19.7459 22.1461 19.7149 22.2401C19.6839 22.3341 19.6346 22.421 19.5699 22.4959C19.5051 22.5707 19.4262 22.632 19.3376 22.6763C19.2491 22.7205 19.1526 22.7467 19.0539 22.7535C18.9551 22.7602 18.856 22.7474 18.7622 22.7157C18.6685 22.684 18.5819 22.634 18.5076 22.5687C18.4332 22.5033 18.3725 22.4239 18.329 22.335L17.361 20.4C16.3605 20.9112 15.2563 21.1866 14.133 21.205H14.126C13.386 21.233 12.662 21.25 12 21.25C11.338 21.25 10.614 21.233 9.874 21.205H9.867C8.74366 21.1866 7.63946 20.9112 6.639 20.4L5.671 22.335C5.62748 22.4239 5.56679 22.5033 5.49243 22.5687C5.41807 22.634 5.33152 22.684 5.23775 22.7157C5.14399 22.7474 5.04488 22.7602 4.94613 22.7535C4.84738 22.7467 4.75094 22.7205 4.66239 22.6763C4.57383 22.632 4.4949 22.5707 4.43014 22.4959C4.36539 22.421 4.3161 22.3341 4.28511 22.2401C4.25411 22.1461 4.24204 22.0468 4.24957 21.9482C4.2571 21.8495 4.2841 21.7532 4.329 21.665L5.329 19.665L5.367 19.597C3.616 18.247 2.407 16.181 2.266 13.945C2.25162 13.6653 2.24628 13.3851 2.25 13.105V12.75H2C1.80109 12.75 1.61032 12.671 1.46967 12.5303C1.32902 12.3897 1.25 12.1989 1.25 12C1.25 11.8011 1.32902 11.6103 1.46967 11.4697C1.61032 11.329 1.80109 11.25 2 11.25H2.25V4.38502C2.24994 3.65636 2.5037 2.95044 2.96766 2.38859C3.43162 1.82674 4.07681 1.44405 4.79232 1.30629C5.50784 1.16854 6.24899 1.28433 6.88839 1.63376C7.5278 1.98318 8.02552 2.54442 8.296 3.22102L8.406 3.49602C9.22668 3.28628 10.0937 3.35378 10.872 3.68802C11.3566 3.89671 11.7947 4.1999 12.1608 4.57987C12.5269 4.95985 12.8135 5.40898 13.004 5.90102C13.0752 6.08219 13.0732 6.28395 12.9983 6.46365C12.9235 6.64335 12.7817 6.78692 12.603 6.86402L6.643 9.43002C6.55075 9.46987 6.45143 9.49077 6.35095 9.4915C6.25046 9.49222 6.15086 9.47274 6.05804 9.43421C5.96523 9.39569 5.88111 9.33891 5.81067 9.26724C5.74023 9.19557 5.68491 9.11048 5.648 9.01702C5.25521 8.01725 5.26237 6.90464 5.668 5.91002C5.9535 5.20181 6.43111 4.5874 7.047 4.13602L6.903 3.77802C6.78168 3.47459 6.57222 3.21447 6.30164 3.03124C6.03106 2.848 5.71178 2.75005 5.385 2.75002ZM4.083 12.75H3.983C3.91969 12.7543 3.86038 12.7826 3.81711 12.829C3.77385 12.8754 3.74985 12.9366 3.75 13V13.083C3.75 13.485 3.75 13.657 3.763 13.85C3.948 16.772 6.458 19.378 9.37 19.673C9.565 19.693 9.673 19.696 9.93 19.706C10.658 19.733 11.363 19.75 12 19.75C12.637 19.75 13.342 19.733 14.07 19.706C14.327 19.696 14.435 19.692 14.63 19.672C17.542 19.378 20.052 16.772 20.238 13.85C20.25 13.657 20.25 13.485 20.25 13.083V12.984C20.25 12.982 20.25 12.982 20.25 12.984C20.246 12.9234 20.22 12.8663 20.1769 12.8234C20.1339 12.7805 20.0767 12.7548 20.016 12.751C20.0173 12.751 20.0173 12.751 20.016 12.751H20L19.918 12.75H4.083ZM10.283 5.06802C9.96939 4.93346 9.63032 4.86851 9.28918 4.87766C8.94805 4.88681 8.61295 4.96984 8.307 5.12102C7.73729 5.40231 7.29197 5.88468 7.057 6.47502C6.89936 6.86339 6.83431 7.28314 6.867 7.70102L11.247 5.81502C10.9951 5.48703 10.6627 5.22971 10.282 5.06802" fill="#000C79"/>
</svg>
