<svg width="24" height="24" viewBox="0 0 24 24" fill="none" xmlns="http://www.w3.org/2000/svg">
<path d="M18.6975 8.22314L21.9201 10.6713C21.9204 10.6716 21.9207 10.6718 21.9211 10.6721C22.0333 10.7587 22.0874 10.8558 22.1038 10.987C22.1205 11.1203 22.0921 11.2457 21.9931 11.3844C21.9015 11.5126 21.8059 11.5641 21.6879 11.5789C21.5566 11.5953 21.4327 11.568 21.2964 11.4722L12.3035 4.60266L11.9999 4.37081L11.6964 4.60266L2.70353 11.4722C2.56717 11.568 2.44334 11.5953 2.31197 11.5789C2.19401 11.5641 2.0984 11.5126 2.00682 11.3844C1.91109 11.2504 1.88661 11.1313 1.90686 11.0028C1.92871 10.8641 1.98912 10.7608 2.10475 10.6714C2.10496 10.6712 2.10518 10.671 2.10539 10.6709L11.0738 3.80094C11.214 3.69965 11.3608 3.62559 11.5151 3.57628C11.6753 3.52511 11.8363 3.5 11.9999 3.5C12.1636 3.5 12.3251 3.52511 12.4862 3.57642C12.6411 3.62575 12.7871 3.69968 12.9255 3.80041L15.696 5.92198L16.4999 6.53764V5.525V4.975C16.4999 4.68962 16.5942 4.46342 16.7911 4.26696C16.9887 4.06984 17.2156 3.97546 17.5007 3.975C17.7846 3.97454 18.0112 4.06839 18.2094 4.26655C18.4075 4.46469 18.5009 4.6907 18.4999 4.97339V4.975V7.825V8.07307L18.6975 8.22314Z" fill="#000C79" stroke="#000C79"/>
<path d="M21 20.475L21 18.475M21 18.475L21 16.475M21 18.475L3 18.475M3 18.475L3 20.475M3 18.475L3 16.475" stroke="#000C79" stroke-width="1.5" stroke-linecap="round"/>
</svg>
