<svg width="24" height="24" viewBox="0 0 24 24" fill="none" xmlns="http://www.w3.org/2000/svg">
<path d="M13.3897 4.81824L19.2007 10.6134M2.01416 20.4275L2.66377 15.9144C2.69872 15.6196 2.83523 15.3461 3.04985 15.141L15.7852 2.40688C15.949 2.23996 16.153 2.11816 16.3776 2.05329C16.6023 1.98842 16.8398 1.98267 17.0673 2.03662C18.2423 2.34854 19.3107 2.97334 20.1586 3.84447C21.0355 4.69051 21.6659 5.75905 21.9823 6.93575C22.0311 7.16352 22.0227 7.39984 21.9578 7.62357C21.893 7.8473 21.7737 8.05148 21.6107 8.21786L8.87664 20.9519C8.65708 21.1547 8.38332 21.2893 8.08867 21.3393L3.5598 21.9876C3.34884 22.0161 3.13415 21.9953 2.93262 21.9267C2.73108 21.8581 2.54821 21.7438 2.39839 21.5925C2.24857 21.4413 2.13589 21.2574 2.06922 21.0552C2.00254 20.853 1.9837 20.6382 2.01416 20.4275Z" stroke="white" stroke-width="1.5" stroke-linecap="round" stroke-linejoin="round"/>
</svg>
