<svg width="24" height="24" viewBox="0 0 24 24" fill="none" xmlns="http://www.w3.org/2000/svg">
<path d="M22 3H2M5 14C5.598 13.293 6.767 11.394 7 9M19 14C18.401 13.293 17.233 11.394 17 9M3 3V14.625M3 14.625V16.75C3 18.753 3 19.755 3.586 20.378C4.172 21 5.114 21 7 21H8C8 19.531 7.6 16.078 6 14.015M3 14.625C4.148 14.548 5.141 14.335 6 14.015M6 14.015C9.88 12.575 12 7.215 12 3C12 7.215 14.12 12.575 18 14.015M21 3V14.625M21 14.625V16.75C21 18.753 21 19.755 20.414 20.378C19.828 21 18.886 21 17 21H16C16 19.531 16.4 16.078 18 14.015M21 14.625C19.852 14.548 18.859 14.335 18 14.015" stroke="#000C79" stroke-width="1.5" stroke-linecap="round" stroke-linejoin="round"/>
</svg>
