<svg width="24" height="24" viewBox="0 0 24 24" fill="none" xmlns="http://www.w3.org/2000/svg">
<path d="M11.87 2.00778L12 2C12.2721 2.00004 12.5348 2.09995 12.7382 2.28079C12.9416 2.46164 13.0715 2.71083 13.1033 2.98111L13.1111 3.11111V10.8889H20.8889C21.161 10.8889 21.4237 10.9888 21.6271 11.1697C21.8305 11.3505 21.9604 11.5997 21.9922 11.87L22 12C22 12.2721 21.9 12.5348 21.7192 12.7382C21.5384 12.9416 21.2892 13.0715 21.0189 13.1033L20.8889 13.1111H13.1111V20.8889C13.1111 21.161 13.0112 21.4237 12.8303 21.6271C12.6495 21.8305 12.4003 21.9604 12.13 21.9922L12 22C11.7279 22 11.4652 21.9 11.2618 21.7192C11.0584 21.5384 10.9285 21.2892 10.8967 21.0189L10.8889 20.8889V13.1111H3.11111C2.83896 13.1111 2.57629 13.0112 2.37292 12.8303C2.16955 12.6495 2.03962 12.4003 2.00778 12.13L2 12C2.00004 11.7279 2.09995 11.4652 2.28079 11.2618C2.46164 11.0584 2.71083 10.9285 2.98111 10.8967L3.11111 10.8889H10.8889V3.11111C10.8889 2.83896 10.9888 2.57629 11.1697 2.37292C11.3505 2.16955 11.5997 2.03962 11.87 2.00778Z" fill="white"/>
</svg>
