<svg width="24" height="24" viewBox="0 0 24 24" fill="none" xmlns="http://www.w3.org/2000/svg">
<path d="M11.75 2C9.82164 2 7.93657 2.57183 6.33319 3.64317C4.72982 4.71451 3.48013 6.23726 2.74218 8.01884C2.00422 9.80042 1.81114 11.7608 2.18735 13.6521C2.56355 15.5434 3.49215 17.2807 4.85571 18.6443C6.21928 20.0079 7.95656 20.9365 9.84787 21.3127C11.7392 21.6889 13.6996 21.4958 15.4812 20.7578C17.2627 20.0199 18.7855 18.7702 19.8568 17.1668C20.9282 15.5634 21.5 13.6784 21.5 11.75C21.4973 9.16498 20.4692 6.68661 18.6413 4.85872C16.8134 3.03084 14.335 2.00273 11.75 2ZM11.75 20C10.1183 20 8.52326 19.5161 7.16655 18.6096C5.80984 17.7031 4.75242 16.4146 4.128 14.9071C3.50358 13.3996 3.3402 11.7408 3.65853 10.1405C3.97685 8.54016 4.76259 7.07015 5.91637 5.91637C7.07016 4.76259 8.54017 3.97685 10.1405 3.65852C11.7409 3.34019 13.3997 3.50357 14.9071 4.12799C16.4146 4.75242 17.7031 5.80984 18.6096 7.16655C19.5161 8.52325 20 10.1183 20 11.75C19.9975 13.9373 19.1275 16.0343 17.5809 17.5809C16.0343 19.1275 13.9373 19.9975 11.75 20ZM15.9144 6.57875L9.91438 9.57875C9.76932 9.65162 9.65162 9.76932 9.57875 9.91437L6.57875 15.9144C6.52151 16.0288 6.49448 16.1559 6.50022 16.2837C6.50596 16.4114 6.54429 16.5356 6.61156 16.6444C6.67882 16.7532 6.7728 16.843 6.88454 16.9052C6.99629 16.9675 7.1221 17.0001 7.25 17C7.36644 16.9998 7.48127 16.9729 7.58563 16.9213L13.5856 13.9213C13.7307 13.8484 13.8484 13.7307 13.9213 13.5856L16.9213 7.58563C16.992 7.44475 17.0166 7.28515 16.9915 7.1295C16.9664 6.97385 16.8929 6.83007 16.7814 6.71859C16.6699 6.60711 16.5262 6.5336 16.3705 6.50849C16.2149 6.48339 16.0553 6.50797 15.9144 6.57875ZM12.6875 12.6875L8.92719 14.5728L10.8125 10.8125L14.5766 8.93094L12.6875 12.6875Z" fill="#000C79"/>
</svg>
