<svg width="24" height="24" viewBox="0 0 24 24" fill="none" xmlns="http://www.w3.org/2000/svg">
<path d="M5.5 19V15.5C5.5 15.2167 5.596 14.9793 5.788 14.788C5.98 14.5967 6.21734 14.5007 6.5 14.5H10V11C10 10.7167 10.096 10.4793 10.288 10.288C10.48 10.0967 10.7173 10.0007 11 10H14.5V6.5C14.5 6.21667 14.596 5.97934 14.788 5.788C14.98 5.59667 15.2173 5.50067 15.5 5.5H19V3C19 2.71667 19.096 2.47934 19.288 2.288C19.48 2.09667 19.7173 2.00067 20 2C20.2827 1.99934 20.5203 2.09534 20.713 2.288C20.9057 2.48067 21.0013 2.718 21 3V6.5C21 6.78334 20.904 7.021 20.712 7.213C20.52 7.405 20.2827 7.50067 20 7.5H16.5V11C16.5 11.2833 16.404 11.521 16.212 11.713C16.02 11.905 15.7827 12.0007 15.5 12H12V15.5C12 15.7833 11.904 16.021 11.712 16.213C11.52 16.405 11.2827 16.5007 11 16.5H7.5V20C7.5 20.2833 7.404 20.521 7.212 20.713C7.02 20.905 6.78267 21.0007 6.5 21H3C2.71667 21 2.47934 20.904 2.288 20.712C2.09667 20.52 2.00067 20.2827 2 20C1.99934 19.7173 2.09534 19.48 2.288 19.288C2.48067 19.096 2.718 19 3 19H5.5Z" fill="#000C79"/>
</svg>
