<svg width="24" height="24" viewBox="0 0 24 24" fill="none" xmlns="http://www.w3.org/2000/svg">
<path fill-rule="evenodd" clip-rule="evenodd" d="M9.10093 6.55084C9.86983 5.78194 10.9127 5.34998 12.0001 5.34998C13.0875 5.34998 14.1303 5.78194 14.8992 6.55084C15.6681 7.31974 16.1001 8.36259 16.1001 9.44998C16.1001 10.5374 15.6681 11.5802 14.8992 12.3491C14.1303 13.118 13.0875 13.55 12.0001 13.55C10.9127 13.55 9.86983 13.118 9.10093 12.3491C8.33203 11.5802 7.90007 10.5374 7.90007 9.44998C7.90007 8.36259 8.33203 7.31974 9.10093 6.55084ZM12.0001 6.84998C11.3105 6.84998 10.6492 7.1239 10.1616 7.6115C9.67399 8.09909 9.40007 8.76041 9.40007 9.44998C9.40007 10.1395 9.67399 10.8009 10.1616 11.2885C10.6492 11.776 11.3105 12.05 12.0001 12.05C12.6896 12.05 13.351 11.776 13.8385 11.2885C14.3261 10.8009 14.6001 10.1395 14.6001 9.44998C14.6001 8.76041 14.3261 8.09909 13.8385 7.6115C13.351 7.1239 12.6896 6.84998 12.0001 6.84998ZM5.0499 5.731C6.17064 3.52336 8.4042 2 12 2C15.5959 2 17.8294 3.52336 18.9502 5.731C20.037 7.87179 20.0133 10.5284 19.4252 12.7564L19.425 12.7572C18.5364 16.1092 16.1275 18.5705 14.2829 20.4552C13.9598 20.7853 13.654 21.0977 13.3768 21.3941C13.2025 21.5844 12.9907 21.7364 12.7548 21.8407C12.517 21.9458 12.26 22.0001 12 22.0001C11.7401 22.0001 11.4831 21.9458 11.2453 21.8407C11.0094 21.7364 10.7976 21.5844 10.6234 21.3942C10.3467 21.0986 10.0417 20.787 9.71958 20.4579C7.87414 18.5728 5.46415 16.1109 4.57507 12.7572L4.57487 12.7564C3.98679 10.5284 3.9631 7.87179 5.0499 5.731ZM6.02507 12.3731C6.80344 15.3088 8.88628 17.4477 10.7361 19.3473C11.0757 19.696 11.4074 20.0366 11.7217 20.3726L11.7287 20.3801L11.7286 20.3801C11.763 20.4179 11.8049 20.4481 11.8517 20.4687C11.8984 20.4894 11.9489 20.5001 12 20.5001C12.0511 20.5001 12.1017 20.4894 12.1484 20.4687C12.1951 20.4481 12.237 20.4179 12.2714 20.3801L12.2782 20.3727L12.2782 20.3728C12.5934 20.0356 12.9262 19.6939 13.2668 19.344C15.1155 17.4452 17.1968 15.3074 17.9749 12.3736M6.02507 12.3731C5.49627 10.3693 5.52004 8.11857 6.38741 6.41C7.22093 4.76814 8.89586 3.5 12 3.5C15.1042 3.5 16.7791 4.76814 17.6126 6.41C18.48 8.11848 18.5038 10.369 17.9751 12.3728" fill="white"/>
</svg>
