<svg width="24" height="24" viewBox="0 0 24 24" fill="none" xmlns="http://www.w3.org/2000/svg">
<path d="M15.5068 14.0537V14.5537M10.7568 16.3037H12.2568L11.5068 17.0537L10.7568 16.3037Z" stroke="#000C79" stroke-width="1.5" stroke-linecap="round" stroke-linejoin="round"/>
<path d="M3.92684 11.3007C3.64748 12.3815 3.50635 13.4933 3.50684 14.6097C3.50684 18.7817 7.08884 21.0537 11.5068 21.0537C15.9248 21.0537 19.5068 18.7817 19.5068 14.6097C19.5019 13.4887 19.3358 12.3743 19.0138 11.3007M7.50684 14.0537V14.5537" stroke="#000C79" stroke-width="1.5" stroke-linecap="round" stroke-linejoin="round"/>
<path d="M8.00682 8.55368C7.62282 9.60368 6.92382 10.5817 5.66282 11.0537C3.73182 11.7757 2.08682 10.7567 2.00682 10.0537C1.89382 9.05968 3.18382 3.52368 6.00682 3.05368C7.92982 2.73268 9.65782 3.89868 9.65782 5.28868C10.9226 4.9676 12.2493 4.98207 13.5068 5.33068C13.5068 3.94068 15.3508 2.73268 17.2738 3.05368C20.0968 3.52368 21.3868 9.05968 21.2738 10.0537C21.1938 10.7567 19.5488 11.7757 17.6178 11.0537C16.3568 10.5817 15.7628 9.60368 15.3788 8.55368" stroke="#000C79" stroke-width="1.5" stroke-linecap="round" stroke-linejoin="round"/>
</svg>
