<svg width="24" height="24" viewBox="0 0 24 24" fill="none" xmlns="http://www.w3.org/2000/svg">
<path fill-rule="evenodd" clip-rule="evenodd" d="M8.9282 6.55084C9.6971 5.78194 10.7399 5.34998 11.8273 5.34998C12.9147 5.34998 13.9576 5.78194 14.7265 6.55084C15.4954 7.31974 15.9273 8.36259 15.9273 9.44998C15.9273 10.5374 15.4954 11.5802 14.7265 12.3491C13.9576 13.118 12.9147 13.55 11.8273 13.55C10.7399 13.55 9.6971 13.118 8.9282 12.3491C8.1593 11.5802 7.72734 10.5374 7.72734 9.44998C7.72734 8.36259 8.1593 7.31974 8.9282 6.55084ZM11.8273 6.84998C11.1378 6.84998 10.4765 7.1239 9.98886 7.6115C9.50127 8.09909 9.22734 8.76041 9.22734 9.44998C9.22734 10.1395 9.50127 10.8009 9.98886 11.2885C10.4765 11.776 11.1378 12.05 11.8273 12.05C12.5169 12.05 13.1782 11.776 13.6658 11.2885C14.1534 10.8009 14.4273 10.1395 14.4273 9.44998C14.4273 8.76041 14.1534 8.09909 13.6658 7.6115C13.1782 7.1239 12.5169 6.84998 11.8273 6.84998ZM4.87717 5.731C5.99791 3.52336 8.23147 2 11.8273 2C15.4231 2 17.6567 3.52336 18.7774 5.731C19.8642 7.87179 19.8405 10.5284 19.2525 12.7564L19.2523 12.7572C18.3636 16.1092 15.9547 18.5705 14.1102 20.4552C13.7871 20.7853 13.4813 21.0977 13.204 21.3941C13.0298 21.5844 12.818 21.7364 12.582 21.8407C12.3443 21.9458 12.0872 22.0001 11.8273 22.0001C11.5674 22.0001 11.3103 21.9458 11.0726 21.8407C10.8366 21.7364 10.6249 21.5844 10.4506 21.3942C10.174 21.0986 9.86901 20.787 9.54685 20.4579C7.70141 18.5728 5.29142 16.1109 4.40234 12.7572L4.40214 12.7564C3.81406 10.5284 3.79037 7.87179 4.87717 5.731ZM5.85234 12.3731C6.63071 15.3088 8.71355 17.4477 10.5634 19.3473C10.903 19.696 11.2347 20.0366 11.549 20.3726L11.556 20.3801L11.5559 20.3801C11.5903 20.4179 11.6322 20.4481 11.6789 20.4687C11.7257 20.4894 11.7762 20.5001 11.8273 20.5001C11.8784 20.5001 11.9289 20.4894 11.9757 20.4687C12.0224 20.4481 12.0643 20.4179 12.0987 20.3801L12.1054 20.3727L12.1055 20.3728C12.4207 20.0356 12.7534 19.6939 13.0941 19.344C14.9428 17.4452 17.0241 15.3074 17.8021 12.3736M5.85234 12.3731C5.32354 10.3693 5.34731 8.11857 6.21469 6.41C7.0482 4.76814 8.72313 3.5 11.8273 3.5C14.9315 3.5 16.6064 4.76814 17.4399 6.41C18.3073 8.11848 18.3311 10.369 17.8023 12.3728" fill="#000C79"/>
</svg>
