<svg width="24" height="24" viewBox="0 0 24 24" fill="none" xmlns="http://www.w3.org/2000/svg">
<path d="M17 14.25C17.2652 14.25 17.5196 14.1446 17.7071 13.9571C17.8946 13.7696 18 13.5152 18 13.25C18 12.9848 17.8946 12.7304 17.7071 12.5429C17.5196 12.3554 17.2652 12.25 17 12.25C16.7348 12.25 16.4804 12.3554 16.2929 12.5429C16.1054 12.7304 16 12.9848 16 13.25C16 13.5152 16.1054 13.7696 16.2929 13.9571C16.4804 14.1446 16.7348 14.25 17 14.25ZM17 18.25C17.2652 18.25 17.5196 18.1446 17.7071 17.9571C17.8946 17.7696 18 17.5152 18 17.25C18 16.9848 17.8946 16.7304 17.7071 16.5429C17.5196 16.3554 17.2652 16.25 17 16.25C16.7348 16.25 16.4804 16.3554 16.2929 16.5429C16.1054 16.7304 16 16.9848 16 17.25C16 17.5152 16.1054 17.7696 16.2929 17.9571C16.4804 18.1446 16.7348 18.25 17 18.25ZM13 13.25C13 13.5152 12.8946 13.7696 12.7071 13.9571C12.5196 14.1446 12.2652 14.25 12 14.25C11.7348 14.25 11.4804 14.1446 11.2929 13.9571C11.1054 13.7696 11 13.5152 11 13.25C11 12.9848 11.1054 12.7304 11.2929 12.5429C11.4804 12.3554 11.7348 12.25 12 12.25C12.2652 12.25 12.5196 12.3554 12.7071 12.5429C12.8946 12.7304 13 12.9848 13 13.25ZM13 17.25C13 17.5152 12.8946 17.7696 12.7071 17.9571C12.5196 18.1446 12.2652 18.25 12 18.25C11.7348 18.25 11.4804 18.1446 11.2929 17.9571C11.1054 17.7696 11 17.5152 11 17.25C11 16.9848 11.1054 16.7304 11.2929 16.5429C11.4804 16.3554 11.7348 16.25 12 16.25C12.2652 16.25 12.5196 16.3554 12.7071 16.5429C12.8946 16.7304 13 16.9848 13 17.25ZM7 14.25C7.26522 14.25 7.51957 14.1446 7.70711 13.9571C7.89464 13.7696 8 13.5152 8 13.25C8 12.9848 7.89464 12.7304 7.70711 12.5429C7.51957 12.3554 7.26522 12.25 7 12.25C6.73478 12.25 6.48043 12.3554 6.29289 12.5429C6.10536 12.7304 6 12.9848 6 13.25C6 13.5152 6.10536 13.7696 6.29289 13.9571C6.48043 14.1446 6.73478 14.25 7 14.25ZM7 18.25C7.26522 18.25 7.51957 18.1446 7.70711 17.9571C7.89464 17.7696 8 17.5152 8 17.25C8 16.9848 7.89464 16.7304 7.70711 16.5429C7.51957 16.3554 7.26522 16.25 7 16.25C6.73478 16.25 6.48043 16.3554 6.29289 16.5429C6.10536 16.7304 6 16.9848 6 17.25C6 17.5152 6.10536 17.7696 6.29289 17.9571C6.48043 18.1446 6.73478 18.25 7 18.25Z" fill="#000C79"/>
<path fill-rule="evenodd" clip-rule="evenodd" d="M6.749 2C6.94791 2 7.13868 2.07902 7.27933 2.21967C7.41998 2.36032 7.499 2.55109 7.499 2.75V3.513C8.161 3.5 8.89 3.5 9.692 3.5H13.805C14.608 3.5 15.337 3.5 15.999 3.513V2.75C15.999 2.55109 16.078 2.36032 16.2187 2.21967C16.3593 2.07902 16.5501 2 16.749 2C16.9479 2 17.1387 2.07902 17.2793 2.21967C17.42 2.36032 17.499 2.55109 17.499 2.75V3.577C17.759 3.597 18.0053 3.62233 18.238 3.653C19.41 3.811 20.359 4.143 21.108 4.891C21.856 5.64 22.188 6.589 22.346 7.761C22.499 8.901 22.499 10.356 22.499 12.194V14.306C22.499 16.144 22.499 17.6 22.346 18.739C22.188 19.911 21.856 20.86 21.108 21.609C20.359 22.357 19.41 22.689 18.238 22.847C17.098 23 15.643 23 13.805 23H9.694C7.856 23 6.4 23 5.261 22.847C4.089 22.689 3.14 22.357 2.391 21.609C1.643 20.86 1.311 19.911 1.153 18.739C1 17.599 1 16.144 1 14.306V12.194C1 10.356 1 8.9 1.153 7.761C1.311 6.589 1.643 5.64 2.391 4.891C3.14 4.143 4.089 3.811 5.261 3.653C5.49433 3.62233 5.74067 3.597 6 3.577V2.75C6 2.55126 6.07888 2.36065 6.21932 2.22002C6.35975 2.0794 6.55026 2.00026 6.749 2ZM5.459 5.14C4.454 5.275 3.874 5.529 3.451 5.952C3.028 6.375 2.774 6.955 2.639 7.96C2.61633 8.13 2.597 8.30967 2.581 8.499H20.917C20.901 8.30967 20.8817 8.12967 20.859 7.959C20.724 6.954 20.47 6.374 20.047 5.951C19.624 5.528 19.044 5.274 18.038 5.139C17.011 5.001 15.656 4.999 13.749 4.999H9.749C7.842 4.999 6.488 5.002 5.459 5.14ZM2.499 12.25C2.499 11.396 2.499 10.653 2.512 10H20.986C20.999 10.653 20.999 11.396 20.999 12.25V14.25C20.999 16.157 20.997 17.512 20.859 18.54C20.724 19.545 20.47 20.125 20.047 20.548C19.624 20.971 19.044 21.225 18.038 21.36C17.011 21.498 15.656 21.5 13.749 21.5H9.749C7.842 21.5 6.488 21.498 5.459 21.36C4.454 21.225 3.874 20.971 3.451 20.548C3.028 20.125 2.774 19.545 2.639 18.539C2.501 17.512 2.499 16.157 2.499 14.25V12.25Z" fill="#000C79"/>
</svg>
