<svg width="19" height="20" viewBox="0 0 19 20" fill="none" xmlns="http://www.w3.org/2000/svg">
<path d="M9 7H7M9 4H6M9 10H6M9 16H6M9 13H7M18 1H14M16 1V19M18 19H14M9 17.875C9 18.496 8.488 19 7.857 19H2.143C1.99408 19.0012 1.84638 18.973 1.70835 18.9171C1.57031 18.8612 1.44463 18.7787 1.33849 18.6742C1.23236 18.5698 1.14783 18.4454 1.08976 18.3083C1.03168 18.1711 1.00118 18.0239 1 17.875V2C1 1.73478 1.10536 1.48043 1.29289 1.29289C1.48043 1.10536 1.73478 1 2 1H7.857C8.488 1 9 1.504 9 2.125V17.875Z" stroke="#000C79" stroke-width="1.5" stroke-linecap="round" stroke-linejoin="round"/>
</svg>
