<svg width="24" height="24" viewBox="0 0 24 24" fill="none" xmlns="http://www.w3.org/2000/svg">
<path d="M2 19V13.75C2.00235 12.9551 2.31917 12.1934 2.88128 11.6313C3.44338 11.0692 4.20507 10.7523 5 10.75H18.5C19.2949 10.7523 20.0566 11.0692 20.6187 11.6313C21.1808 12.1934 21.4977 12.9551 21.5 13.75V19M17.75 10.75H4.25V5.875C4.25148 5.37818 4.4495 4.90212 4.80081 4.55081C5.15212 4.1995 5.62818 4.00148 6.125 4H17.375C17.8718 4.00148 18.3479 4.1995 18.6992 4.55081C19.0505 4.90212 19.2485 5.37818 19.25 5.875V10.75H17.75Z" stroke="#000C79" stroke-width="1.5" stroke-linecap="round" stroke-linejoin="round"/>
<path d="M2 19V18.625C2.00087 18.3269 2.11967 18.0413 2.33046 17.8305C2.54125 17.6197 2.8269 17.5009 3.125 17.5H20.375C20.6731 17.5009 20.9587 17.6197 21.1695 17.8305C21.3803 18.0413 21.4991 18.3269 21.5 18.625V19M5 10.75V10C5.00111 9.60252 5.15951 9.22163 5.44057 8.94057C5.72163 8.65951 6.10252 8.50111 6.5 8.5H10.25C10.6475 8.50111 11.0284 8.65951 11.3094 8.94057C11.5905 9.22163 11.7489 9.60252 11.75 10M11.75 10V10.75M11.75 10C11.7511 9.60252 11.9095 9.22163 12.1906 8.94057C12.4716 8.65951 12.8525 8.50111 13.25 8.5H17C17.3975 8.50111 17.7784 8.65951 18.0594 8.94057C18.3405 9.22163 18.4989 9.60252 18.5 10V10.75" stroke="#000C79" stroke-width="1.5" stroke-linecap="round" stroke-linejoin="round"/>
</svg>
