<svg width="16" height="16" viewBox="0 0 16 16" fill="none" xmlns="http://www.w3.org/2000/svg">
<path d="M9.99607 8.74872L13.4876 5.25714C13.6534 5.09172 13.7466 4.86725 13.7468 4.63311C13.747 4.39897 13.6542 4.17433 13.4888 4.00863C13.3233 3.84292 13.0989 3.7497 12.8647 3.7495C12.6306 3.74929 12.4059 3.84211 12.2402 4.00752L8.74866 7.4991L5.25708 4.00752C5.09137 3.84181 4.86662 3.74872 4.63227 3.74872C4.39792 3.74872 4.17317 3.84181 4.00746 4.00752C3.84175 4.17323 3.74866 4.39798 3.74866 4.63233C3.74866 4.86668 3.84175 5.09143 4.00746 5.25714L7.49904 8.74872L4.00746 12.2403C3.84175 12.406 3.74866 12.6308 3.74866 12.8651C3.74866 13.0995 3.84175 13.3242 4.00746 13.4899C4.17317 13.6556 4.39792 13.7487 4.63227 13.7487C4.86662 13.7487 5.09137 13.6556 5.25708 13.4899L8.74866 9.99834L12.2402 13.4899C12.4059 13.6556 12.6307 13.7487 12.865 13.7487C13.0994 13.7487 13.3241 13.6556 13.4899 13.4899C13.6556 13.3242 13.7487 13.0995 13.7487 12.8651C13.7487 12.6308 13.6556 12.406 13.4899 12.2403L9.99607 8.74872Z" fill="#1A1A1A"/>
</svg>
