<svg width="16" height="16" viewBox="0 0 16 16" fill="none" xmlns="http://www.w3.org/2000/svg">
<path d="M9.64252 8.39516L9.28885 8.74883L9.64263 9.10238L13.1363 12.5939C13.1363 12.5939 13.1364 12.5939 13.1364 12.5939C13.1364 12.5939 13.1364 12.594 13.1364 12.594C13.2083 12.6659 13.2487 12.7634 13.2487 12.8651C13.2487 12.9668 13.2082 13.0644 13.1363 13.1364C13.0644 13.2083 12.9668 13.2487 12.865 13.2487C12.7633 13.2487 12.6657 13.2083 12.5938 13.1364L9.10221 9.64478L8.74866 9.29123L8.3951 9.64478L4.90353 13.1364C4.83158 13.2083 4.73401 13.2487 4.63227 13.2487C4.53053 13.2487 4.43296 13.2083 4.36101 13.1364C4.28907 13.0644 4.24866 12.9668 4.24866 12.8651C4.24866 12.7634 4.28907 12.6658 4.36101 12.5939L7.85259 9.10227L8.20615 8.74872L7.85259 8.39516L4.36102 4.90359C4.28907 4.83165 4.24866 4.73407 4.24866 4.63233C4.24866 4.53059 4.28907 4.43302 4.36101 4.36108C4.43296 4.28913 4.53053 4.24872 4.63227 4.24872C4.73401 4.24872 4.83158 4.28913 4.90353 4.36108L8.3951 7.85265L8.74866 8.20621L9.10221 7.85265L12.5935 4.36139C12.5936 4.3613 12.5937 4.3612 12.5938 4.36111C12.5938 4.3611 12.5938 4.36109 12.5938 4.36108C12.6656 4.28954 12.7629 4.24941 12.8643 4.2495C12.9658 4.24959 13.0632 4.29001 13.1349 4.36187C13.2066 4.43372 13.2469 4.53114 13.2468 4.63267C13.2467 4.7342 13.2063 4.83154 13.1344 4.90327L13.1341 4.90359L9.64252 8.39516Z" fill="#909090" stroke="#909090"/>
</svg>
